<?xml version="1.0" encoding="UTF-8"?>
<svg id="Calque_1" data-name="Calque 1" xmlns="http://www.w3.org/2000/svg" viewBox="0 0 804.83 841.89">
  <defs>
    <style>
      .cls-1 {
        fill: #a58a6d;
        stroke-width: 0px;
      }
    </style>
  </defs>
  <path class="cls-1" d="M404.49,165.12c88.78,3.27,105.74,90,107.61,108,.21,1.85-.89,3.61-2.66,4.24l-35.79,12.77c-8.39,2.96-12.78,12.2-9.78,20.6l19.68,55.29c1.37,3.77,1.26,7.93-.27,11.6-20.79,49.65-47.14,102.83-63.06,134.07-5.96,11.69-22.62,11.75-28.67.13-10-19.24-24.04-46.8-38.3-76.72-1.92-3.98-3.78-8.01-5.68-12.06-16.7-35.65-33.02-73.41-42.86-103.8-1.38-4.26-2.62-8.38-3.73-12.32-3.56-12.67-5.64-23.52-5.68-31.77-.22-60.52,48.68-112.26,109.17-110.04Z"/>
  <path class="cls-1" d="M406.08,561.9c52.1-.19,94.48,41.83,94.7,93.95.02,7.38-.81,14.57-2.38,21.45-2.49,10.8-6.81,20.94-12.65,29.97-16.71,25.92-45.79,43.11-78.91,43.24-52.09.2-94.48-41.86-94.69-93.93-.22-52.09,41.84-94.49,93.93-94.69Z"/>
</svg>