<?xml version="1.0" encoding="UTF-8"?>
<svg id="Calque_1" data-name="Calque 1" xmlns="http://www.w3.org/2000/svg" viewBox="0 0 804.83 841.89">
  <defs>
    <style>
      .cls-1 {
        fill: #a58a6d;
        stroke-width: 0px;
      }
    </style>
  </defs>
  <path class="cls-1" d="M438.6,374.99c.07.62-.3,1.22-.89,1.43l-11.98,4.27c-2.8.99-4.28,4.09-3.27,6.9l6.58,18.51c.46,1.26.43,2.64-.09,3.88-6.95,16.62-15.78,34.41-21.11,44.87-1.99,3.91-7.57,3.93-9.6.05-3.34-6.45-8.04-15.67-12.81-25.68-.64-1.34-1.27-2.68-1.9-4.04-5.58-11.93-11.05-24.58-14.35-34.74-.46-1.44-.87-2.81-1.25-4.13-1.19-4.24-1.88-7.87-1.9-10.63-.07-20.25,16.3-37.57,36.55-36.83,29.71,1.09,35.39,30.12,36.01,36.14Z"/>
  <path class="cls-1" d="M517.85,237.73h-230.88c-37.44,0-67.78,30.35-67.78,67.78v230.89c0,37.43,30.34,67.77,67.78,67.77h230.88c37.44,0,67.78-30.34,67.78-67.77v-230.89c0-37.43-30.34-67.78-67.78-67.78ZM500.31,521.54h-71.37c.3-.4.57-.81.84-1.24,1.96-3.02,3.41-6.42,4.24-10.03.52-2.31.8-4.7.79-7.18-.08-17.45-14.25-31.51-31.7-31.44-17.43.06-31.51,14.25-31.43,31.69.02,6.79,2.19,13.07,5.86,18.2h-73.02v-115.28c0-23.48,15.83-53.57,35.55-66.33,49.58-32.07,100.78-21.7,131.56,9.09,17.72,17.71,28.68,42.19,28.68,69.23v103.3Z"/>
</svg>