<?xml version="1.0" encoding="UTF-8"?>
<svg id="Calque_1" data-name="Calque 1" xmlns="http://www.w3.org/2000/svg" viewBox="0 0 804.83 841.89">
  <defs>
    <style>
      .cls-1 {
        fill: #a58a6d;
        stroke-width: 0px;
      }
    </style>
  </defs>
  <path class="cls-1" d="M537.78,305.52c-60.21-60.21-160.35-80.51-257.3-17.79-38.54,24.95-69.51,83.82-69.51,129.72v225.48h142.8c-7.19-10.03-11.42-22.31-11.47-35.6-.13-34.1,27.39-61.87,61.46-61.97,34.13-.13,61.84,27.36,62,61.49.03,4.84-.51,9.52-1.55,14.04-1.63,7.06-4.44,13.69-8.29,19.61-.51.83-1.07,1.66-1.63,2.43h139.59v-202.05c0-52.85-21.42-100.73-56.09-135.37ZM471.42,359.09l-23.43,8.34c-5.48,1.95-8.37,8-6.39,13.51l12.89,36.19c.88,2.46.83,5.16-.19,7.6-13.59,32.5-30.87,67.29-41.3,87.76-3.88,7.65-14.79,7.68-18.75.08-6.53-12.6-15.73-30.63-25.06-50.2-1.26-2.62-2.49-5.24-3.72-7.92-10.91-23.32-21.61-48.06-28.06-67.94-.88-2.81-1.71-5.48-2.43-8.08-2.33-8.26-3.69-15.38-3.72-20.78-.13-39.61,31.86-73.47,71.47-72.03,58.09,2.14,69.22,58.92,70.42,70.69.13,1.2-.56,2.38-1.74,2.78Z"/>
</svg>